<svg width="35" height="33" viewBox="0 0 35 33" fill="none" xmlns="http://www.w3.org/2000/svg">
<path fill-rule="evenodd" clip-rule="evenodd" d="M17.5632 4.15218L16.5941 2.95489C12.6946 -1.16746 6.47584 -0.886543 2.57632 3.23581C-1.3232 7.35816 -0.572728 15.328 3.32679 19.4504C4.90945 21.1235 7.27957 23.44 10.4372 26.4L13.0936 28.8705L16.0772 31.6084C16.8988 32.3579 18.1125 32.3694 18.9466 31.6355L21.3636 29.4932C25.5964 25.7116 28.7374 22.733 30.7866 20.5574L31.3185 19.984L31.7961 19.4504C35.4278 15.3102 36.3611 7.26229 32.5523 3.23581L32.2764 2.95489C28.36 -0.884313 22.4544 -1.07159 18.6456 2.95489L17.5632 4.15218ZM4.14541 4.89449C7.22893 1.63477 11.9993 1.48194 14.9678 4.55361L17.4723 7.64792L20.2498 4.57559C23.0988 1.56468 27.6393 1.6082 30.7676 4.6749L31.0131 4.92541C33.7046 7.77129 33.2467 14.3468 30.1691 17.8553L29.7068 18.3716L29.1939 18.9244C27.4951 20.7267 24.9775 23.1414 21.6579 26.1486L19.9314 27.7015L17.5271 29.8325L14.5482 27.099L12.4162 25.1191C9.412 22.3123 7.09445 20.0672 5.47179 18.3928L4.89588 17.7916C1.6835 14.3957 1.28171 7.92182 4.14541 4.89449Z" fill="#A6A6A6"/>
</svg>
