<svg width="36" height="32" viewBox="0 0 36 32" fill="none" xmlns="http://www.w3.org/2000/svg">
<path d="M17.0505 3.11204L18.0463 4.27576L19.1584 3.11204C23.072 -0.801558 29.1401 -0.619531 33.1641 3.11204L33.4476 3.38508C37.3612 7.29868 36.4023 15.121 32.6707 19.1451L32.1799 19.6637L31.6334 20.2211C29.5278 22.3356 19.4677 30.9886 19.4677 30.9886C18.6107 31.7019 17.3635 31.6907 16.5194 30.9622L13.4537 28.3011L10.7242 25.8998C7.4798 23.0228 5.04448 20.7712 3.4183 19.1451C-0.588481 15.1383 -1.3596 7.39186 2.64718 3.38508C6.65396 -0.621698 13.0438 -0.894739 17.0505 3.11204Z" fill="#C80000"/>
</svg>
