<svg width="36" height="36" viewBox="0 0 36 36" fill="none" xmlns="http://www.w3.org/2000/svg">
<path d="M25.6173 22.5432H23.9983L23.4245 21.9899C25.4329 19.6536 26.642 16.6205 26.642 13.321C26.642 5.96371 20.6783 0 13.321 0C5.96371 0 0 5.96371 0 13.321C0 20.6783 5.96371 26.642 13.321 26.642C16.6205 26.642 19.6536 25.4329 21.9899 23.4245L22.5432 23.9983V25.6173L32.7902 35.8438L35.8438 32.7902L25.6173 22.5432ZM13.321 22.5432C8.21803 22.5432 4.09877 18.424 4.09877 13.321C4.09877 8.21803 8.21803 4.09877 13.321 4.09877C18.424 4.09877 22.5432 8.21803 22.5432 13.321C22.5432 18.424 18.424 22.5432 13.321 22.5432Z" fill="#171717"/>
<circle cx="13" cy="13" r="10" fill="#171717"/>
</svg>
